# xmcd CD database file
#
# Track frame offsets:
#	150
#	18807
#	35575
#	50680
#	68095
#	85400
#	109090
#	123510
#	144340
#	162420
#	182482
#	201010
#	221015
#	229355
#	247075
#	259630
#	271845
#	295915
#	318825
#
# Disc length: 4533 seconds
#
# Revision: 5
# Processed by: cddbd v1.5.1PL2 Copyright (c) Steve Scherf et al.
# Submitted via: CDex 1.40Release
#
DISCID=1611b313
DTITLE=Nirvana - Message from Nirvana
DYEAR=1994
DGENRE=Rock and Roll
TTITLE0=Radio Friendly Unit Shifter
TTITLE1=Drain You
TTITLE2=Breed
TTITLE3=Serve the Servants
TTITLE4=About a Girl
TTITLE5=Heart-Shaped Box
TTITLE6=Dumb
TTITLE7=In Bloom
TTITLE8=Come as You Are
TTITLE9=Lithium
TTITLE10=Pennyroyal Tea
TTITLE11=Polly
TTITLE12=Kurt Guitar Solo
TTITLE13=Tourettes
TTITLE14=Rape Me
TTITLE15=Territorial Pissings
TTITLE16=Jesus Wants me for a Sunbeam
TTITLE17=Scentless Apprentice
TTITLE18=Smells Like Teen Spirit
EXTD=Nirvana live at St. Petersburg, Fl.;Bayfront Amphitheater - 11-27-93 YEAR: 1994 ID3G: 78
EXTT0=
EXTT1=
EXTT2=
EXTT3=
EXTT4=
EXTT5=
EXTT6=
EXTT7=
EXTT8=
EXTT9=
EXTT10=
EXTT11=
EXTT12=
EXTT13=
EXTT14=
EXTT15=
EXTT16=
EXTT17=
EXTT18=
PLAYORDER=
